<svg xmlns="http://www.w3.org/2000/svg" xmlns:xlink="http://www.w3.org/1999/xlink" viewBox="0,0,256,256" width="50px" height="50px" fill-rule="nonzero"><g fill="#a9ffdc" fill-rule="nonzero" stroke="none" stroke-width="1" stroke-linecap="butt" stroke-linejoin="miter" stroke-miterlimit="10" stroke-dasharray="" stroke-dashoffset="0" font-family="none" font-weight="none" font-size="none" text-anchor="none" style="mix-blend-mode: normal"><g transform="scale(5.12,5.12)"><path d="M36.71875,5.28125l-1.4375,1.4375l3.28125,3.28125h-6c-1.9375,0 -3.71484,1.14844 -4.53125,2.90625l-3.71875,7.9375l1.125,2.375l4.40625,-9.46875c0.48828,-1.05469 1.55469,-1.75 2.71875,-1.75h6l-3.28125,3.28125l1.4375,1.4375l5,-5l0.6875,-0.71875l-0.6875,-0.71875zM8,10v2h6.4375c1.17188,0 2.22656,0.6875 2.71875,1.75l10.875,23.34375c0.82031,1.76172 2.58594,2.90625 4.53125,2.90625h6l-3.28125,3.28125l1.4375,1.4375l5,-5l0.6875,-0.71875l-0.6875,-0.71875l-5,-5l-1.4375,1.4375l3.28125,3.28125h-6c-1.17187,0 -2.22656,-0.6875 -2.71875,-1.75l-10.875,-23.34375c-0.82031,-1.76172 -2.58594,-2.90625 -4.53125,-2.90625zM21.5625,26.78125l-4.40625,9.46875c-0.48828,1.05469 -1.55469,1.75 -2.71875,1.75h-6.4375v2h6.4375c1.9375,0 3.71484,-1.14844 4.53125,-2.90625l3.71875,-7.9375z"></path></g></g></svg>