<svg xmlns="http://www.w3.org/2000/svg" xmlns:xlink="http://www.w3.org/1999/xlink" viewBox="0,0,256,256" width="48px" height="48px" fill-rule="nonzero"><g fill="#a9ffdc" fill-rule="nonzero" stroke="none" stroke-width="1" stroke-linecap="butt" stroke-linejoin="miter" stroke-miterlimit="10" stroke-dasharray="" stroke-dashoffset="0" font-family="none" font-weight="none" font-size="none" text-anchor="none" style="mix-blend-mode: normal"><g transform="scale(10.66667,10.66667)"><path d="M19.595,8.635l-6.17,-6.229c-0.392,-0.396 -0.908,-0.594 -1.425,-0.594c-0.517,0 -1.033,0.198 -1.426,0.594l-6.17,6.229c-0.867,0.877 -0.247,2.365 0.987,2.365h13.219c1.233,0 1.853,-1.488 0.985,-2.365z" opacity="0.35"></path><path d="M4.405,15.365l6.17,6.229c0.393,0.396 0.909,0.595 1.426,0.594c0.517,0 1.033,-0.198 1.426,-0.594l6.17,-6.229c0.866,-0.877 0.246,-2.365 -0.988,-2.365h-13.218c-1.234,0 -1.854,1.488 -0.986,2.365z"></path></g></g></svg>